<svg xmlns="http://www.w3.org/2000/svg" viewBox="0 0 64 64" fill="none">
  <!-- Shield body -->
  <path d="M32 4L8 14v18c0 14.4 10.24 27.2 24 32 13.76-4.8 24-17.6 24-32V14L32 4z" fill="#0B1120"/>
  <!-- Inner shield border -->
  <path d="M32 8L12 16.5v14.5c0 12.4 8.64 23.4 20 27.5 11.36-4.1 20-15.1 20-27.5V16.5L32 8z" fill="#0F1729"/>
  <!-- Gold accent line -->
  <path d="M32 12L16 19v12c0 10.8 7.2 20.4 16 24 8.8-3.6 16-13.2 16-24V19L32 12z" stroke="#C4A265" stroke-width="1" fill="none"/>
  <!-- Mint leaf -->
  <path d="M32 22c-6 4-10 10-10 16 2-2 5-3.5 8-3.5V22z" fill="#C4A265" opacity="0.9"/>
  <path d="M32 22c6 4 10 10 10 16-2-2-5-3.5-8-3.5V22z" fill="#C4A265" opacity="0.7"/>
  <!-- Leaf vein -->
  <line x1="32" y1="22" x2="32" y2="38" stroke="#0B1120" stroke-width="0.8" opacity="0.5"/>
  <!-- Small gold dot -->
  <circle cx="32" cy="44" r="1.5" fill="#C4A265"/>
</svg>
